<svg xmlns="http://www.w3.org/2000/svg" viewBox="0 0 149.2 73">
  <g data-name="Layer 2">
    <g data-name="Layer 1">
      <path d="M25 20l6 26.7h-3.1L26.2 39h-6l-1.7 7.7h-2.8L21.8 20zm-4.3 16.5h5l-2.4-13.3zM36 20v9.8c.8-2.1 2.2-3.2 4-3.2 3.8 0 5.9 3.2 5.9 10s-2.3 10.5-6.2 10.5a4.3 4.3 0 01-4.3-2.8l-.7 2.4h-1.5V20.1zm3.5 9c-2.3 0-3.5 2.6-3.5 6.6v4c0 3.6 1.5 5.2 3.2 5.2 2.4 0 3.6-2.4 3.6-8s-1-7.8-3.3-7.8zM61.5 37c0 7-2.2 10.2-6.5 10.2s-6.4-3.5-6.4-10.2c0-6.4 2.2-10.4 6.4-10.4s6.5 3.8 6.5 10.4zm-6.4 7.8c2.3 0 3.4-2.4 3.4-7.5 0-6-1-8.4-3.5-8.4s-3.4 2.7-3.4 8.1 1 7.9 3.4 7.9zM67.7 27v14c0 3 1 3.7 2.6 3.7 2.2 0 3.2-2 3.2-4.9V27h2.7v19.7h-2.5v-2.3a4.4 4.4 0 01-4.3 2.8 5.2 5.2 0 01-2.6-.7c-1.4-.9-1.8-1.9-1.8-5.9V27zM84 27h3.3v2.3h-3.4v11c0 2.8.3 3.8 2.4 3.8a6.5 6.5 0 001.5-.1v2.4a5.2 5.2 0 01-2.3.4 4.7 4.7 0 01-2.7-.7c-1.2-.9-1.6-2.3-1.6-5.8v-11h-2.3V27h2.3v-5l2.7-.3zM103.2 20l5.3 21.7 5.4-21.6h4v26.6h-3l.3-22.7-5.7 22.8h-2.2l-5.6-23 .2 23h-2.7V20zM134.7 36.7v.5h-10v.3c0 5.1 1.4 7.3 4 7.3 1.7 0 2.8-1.3 3.3-4l2.4.7c-1 4-2.7 5.7-6 5.7-4.5 0-6.6-3.2-6.6-10.1 0-6.5 2.2-10.6 6.5-10.6 4.2 0 6.4 3.2 6.4 10.2zm-3-1.8c0-4.4-1.2-6-3.4-6-2.6 0-3.4 3.2-3.5 6z"/>
      <path fill="none" stroke="#3fa9f5" stroke-linecap="round" stroke-linejoin="bevel" stroke-width="2" d="M1 1h147.2v71H1z"/>
    </g>
  </g>
</svg>
