<svg xmlns="http://www.w3.org/2000/svg" viewBox="0 0 133.5 73">
  <g data-name="Layer 2">
    <g data-name="Layer 1">
      <path d="M34 27l-2.7.6c-.6-4.2-2-5.4-3.8-5.4-3.2 0-4.7 3.8-4.7 11.5 0 6.5 1.2 11 4.6 11 2.1 0 3.2-1.4 3.9-5.2l2.7.5c-1 5.8-3.4 7.3-6.7 7.3-5.4 0-7.7-5.3-7.7-13.3 0-7.8 2.2-14.4 7.7-14.4 3.3 0 5.9 1.5 6.7 7.4zM48.6 37c0 7-2.1 10.2-6.5 10.2s-6.4-3.5-6.4-10.2c0-6.4 2.2-10.4 6.5-10.4s6.4 3.8 6.4 10.4zm-6.4 7.8c2.4 0 3.4-2.4 3.4-7.5 0-6-.9-8.4-3.5-8.4s-3.4 2.7-3.4 8.1 1 7.9 3.5 7.9zM61.7 27.3c1.2.7 1.9 2 1.9 5.5v14h-2.8V33.4c0-3.3-.8-4.4-2.5-4.4-2 0-3.2 2.2-3.2 6v11.6h-2.7V27h2.5v3c1-2.4 2.4-3.5 4.4-3.5a4.3 4.3 0 012.4.8zM71 27h3.4v2.3h-3.3v11c0 2.8.2 3.8 2.3 3.8a6.5 6.5 0 001.5-.1v2.4a5.2 5.2 0 01-2.3.4 4.7 4.7 0 01-2.7-.7c-1.2-.9-1.6-2.3-1.6-5.8v-11h-2.2V27h2.2v-5l2.8-.3zM86.6 27.3c1.8 1.1 2.2 2.4 2.2 6.6v8.8a21.4 21.4 0 00.3 4h-2.5a8.1 8.1 0 01-.4-2.9c-1 2.5-2.2 3.4-4.5 3.4-3.2 0-5.1-2.2-5.1-5.8 0-4.3 2.6-6.9 7.6-6.9H86V34c0-3 0-5.2-3-5.2-2.4 0-3 1.6-3.4 3.7l-2.6-.7c.8-3.7 3-5.3 6.2-5.3a6.4 6.4 0 013.4.8zM82.1 45c2.2 0 3.9-1.8 3.9-7v-1.2h-1.5c-3.6 0-5 1.6-5 4.7 0 2.2 1 3.5 2.6 3.5zM104.4 33l-2.6.4c-.3-3-1.3-4.5-3.2-4.5-2.4 0-3.3 2-3.3 8 0 4.6.3 8 3.3 8 1.8 0 2.9-1.3 3.2-4.5l2.6.3c-.6 4.5-2.3 6.6-5.8 6.6-4.2 0-6.3-3-6.3-10 0-7.6 2.2-10.7 6.3-10.7 3.3 0 5.3 2.1 5.8 6.3zM110.6 27h3.3v2.3h-3.3v11c0 2.8.2 3.8 2.3 3.8a6.5 6.5 0 001.5-.1v2.4a5.2 5.2 0 01-2.3.4 4.7 4.7 0 01-2.7-.7c-1.2-.9-1.6-2.3-1.6-5.8v-11h-2.2V27h2.2v-5l2.8-.3z"/>
      <path fill="none" stroke="#3fa9f5" stroke-linecap="round" stroke-linejoin="bevel" stroke-width="2" d="M1 1h131.5v71H1z"/>
    </g>
  </g>
</svg>
