<svg xmlns="http://www.w3.org/2000/svg" viewBox="0 0 133.5 73">
  <g data-name="Layer 2">
    <g data-name="Layer 1">
      <path d="M40.6 19.7L46 41.3l5.4-21.6h4v26.6h-3l.2-22.7L47 46.3h-2.3L39 23.5l.2 22.8h-2.7V19.7zM63.1 19.7V23h-3v-3.4zm-.1 7v19.6h-2.8V26.6zM77.4 31.1l-2.4.6c-.6-2.4-1.6-3.2-3.1-3.2a2.5 2.5 0 00-2.7 2.7 3.1 3.1 0 001.8 3l3.3 1.7c2.3 1.3 3.5 2.4 3.5 5.1 0 3.6-2.3 5.8-5.8 5.8s-5.7-2-6.2-5.5l2.4-.6c.5 2.7 1.7 3.8 3.8 3.8a2.8 2.8 0 003-3c0-2-.7-2.6-4-4.2s-4.5-3.3-4.5-5.8a5.1 5.1 0 015.4-5.4c3 0 4.9 1.7 5.5 5zM91.8 32.5l-2.6.5c-.3-3-1.3-4.5-3.2-4.5-2.4 0-3.3 2-3.3 8 0 4.6.3 8 3.3 8 1.8 0 2.9-1.3 3.2-4.5l2.6.3c-.6 4.5-2.3 6.6-5.8 6.6-4.2 0-6.3-3-6.3-10 0-7.6 2.2-10.7 6.3-10.7 3.4 0 5.4 2.1 5.8 6.3zM98.5 42v4.3H95V42z"/>
      <path fill="none" stroke="#3fa9f5" stroke-linecap="round" stroke-linejoin="bevel" stroke-width="2" d="M1 1h131.5v71H1z"/>
    </g>
  </g>
</svg>
