<svg xmlns="http://www.w3.org/2000/svg" viewBox="0 0 133.5 73">
  <g data-name="Layer 2">
    <g data-name="Layer 1">
      <path d="M36.8 20l3.4 21L44 20h2.5l4.2 21 3-21h2.8L52 46.7h-3l-3.8-20.5-3.8 20.5h-3L33.9 20zM70.2 37c0 6.9-2.2 10.2-6.5 10.2s-6.5-3.5-6.5-10.3c0-6.4 2.2-10.4 6.5-10.4s6.5 3.9 6.5 10.5zm-6.5 7.8c2.4 0 3.5-2.4 3.5-7.5 0-6-1-8.5-3.5-8.5s-3.4 2.7-3.4 8.2 1 7.8 3.4 7.8zM81.4 26.7v3h-.6c-3.9 0-4.1 4-4.1 7.3v9.7h-2.8V27h2.6v4c.8-3 2.2-4.4 4-4.4a3.5 3.5 0 011 0zM86.2 20v16.6l5.5-9.6h3l-4.4 7.3 5 12.4h-3.4L88.5 37l-2.3 3.6v6h-2.8V20z"/>
      <path fill="none" stroke="#3fa9f5" stroke-linecap="round" stroke-linejoin="bevel" stroke-width="2" d="M1 1h131.5v71H1z"/>
    </g>
  </g>
</svg>
