<svg xmlns="http://www.w3.org/2000/svg" viewBox="0 0 303 146">
  <path d="M152.3 99.8v29.4H149V99.8h3.3zM161.3 99.8v26.5h9.2v2.9H158V99.8h3.3z"/>
  <path d="M180.2 99.8l6.6 29.4h-3.4l-1.8-8.5H175l-1.8 8.5H170l6.7-29.4h3.5zm-4.7 18.1h5.5l-2.7-14.6-2.8 14.6zM193.5 99.8l9.3 23-.2-23h3v29.4h-3.3l-10-25.1.2 25.1h-3V99.8h4zM235.4 107.4l-3 .7c-.7-4.7-2.1-6-4.2-6-3.5 0-5.1 4.2-5.1 12.6 0 7.1 1.3 12.1 5 12.1 2.3 0 3.6-1.5 4.3-5.7l3 .5c-1.2 6.4-3.8 8.1-7.4 8.1-6 0-8.4-5.8-8.4-14.7 0-8.6 2.4-15.8 8.4-15.8 3.7 0 6.5 1.7 7.4 8.2zM241.9 99.8v26.5h9.2v2.9h-12.5V99.8h3.3zM256.9 99.8v29.4h-3.3V99.8h3.3zM266.5 99.8l9.3 23-.2-23h3v29.4h-3.3l-10-25.1.2 25.1h-3V99.8h4zM297.7 99.8v2.9h-10.1v9.8h7.8v2.9h-7.8v11H298v2.9h-13.7V99.8h13.4z"/>
  <g>
    <path fill="none" stroke="#3fa9f5" stroke-linecap="round" stroke-linejoin="bevel" stroke-miterlimit="10" stroke-width="2" d="M26.9 141.9c-2.9 0-5.9-.6-8.7-1.7A22.88 22.88 0 014.1 119V27.8a22.79 22.79 0 1145.6 0V64L102 11.6c8.9-8.9 23.4-8.9 32.3 0 8.9 8.9 8.9 23.4 0 32.3L43 135.2c-4.3 4.3-10.2 6.7-16.1 6.7z"/>
  </g>
  <g>
    <path fill="#010103" d="M131.9 114.8v-8.7-20.7-25.2-21.8c0-3.5.1-7.1 0-10.6v-.1c0-2.3-.7-4.9-1.9-6.9-1.5-2.6-3.8-4.5-6.6-5.6-2.3-1-4.6-1.3-7.1-.9-3 .4-5.7 1.6-7.9 3.8L93 33.5 68.4 58.1l-5.6 5.6h19.4C77.1 58.5 72 53.4 66.8 48.2L42.2 23.6 36.6 18c-2.5-2.5-6.2-4-9.7-4-3.4 0-7.4 1.5-9.7 4-2.4 2.6-4.2 6.1-4 9.7.2 3.6 1.4 7.1 4 9.7l15.4 15.4 24.6 24.6 5.6 5.6c5.3 5.3 14.2 5.3 19.4 0l15.4-15.4L122.2 43l5.6-5.6c-7.8-3.2-15.6-6.5-23.5-9.7V114.8c0 3.5 1.5 7.2 4 9.7 2.4 2.4 6.3 4.2 9.7 4 3.6-.2 7.2-1.3 9.7-4 2.7-2.7 4.2-6 4.2-9.7z"/>
  </g>
</svg>
