<?xml version="1.0" standalone="no"?>
<!DOCTYPE svg PUBLIC "-//W3C//DTD SVG 20010904//EN"
 "http://www.w3.org/TR/2001/REC-SVG-20010904/DTD/svg10.dtd">
<svg version="1.0" xmlns="http://www.w3.org/2000/svg"
 width="700.000000pt" height="700.000000pt" viewBox="0 0 700.000000 700.000000"
 preserveAspectRatio="xMidYMid meet">
<metadata>
Created by potrace 1.11, written by Peter Selinger 2001-2013
</metadata>
<g transform="translate(0.000000,700.000000) scale(0.100000,-0.100000)"
fill="#000000" stroke="none">
<path d="M1420 6598 c-73 -13 -224 -50 -240 -59 -8 -4 -46 -22 -85 -39 -288
-129 -521 -390 -618 -695 -24 -73 -45 -171 -52 -245 -9 -82 -9 -4059 -1 -4120
25 -175 59 -288 123 -413 125 -242 336 -441 573 -540 59 -24 168 -64 180 -65
12 -1 87 -15 105 -20 49 -12 304 -9 380 5 195 35 385 123 540 248 22 18 608
600 1303 1295 l1262 1262 0 -781 c0 -430 0 -783 1 -786 48 -272 211 -431 494
-480 168 -29 373 31 498 145 82 75 135 168 163 286 4 16 8 643 9 1394 2 751 3
1371 4 1378 1 7 71 83 157 170 107 107 176 187 220 252 146 219 205 423 199
685 -6 249 -75 452 -223 658 -56 79 -185 210 -238 243 -16 10 -38 26 -49 36
-30 26 -211 116 -270 134 -70 22 -162 44 -215 52 -60 9 -294 8 -350 -2 -186
-32 -372 -112 -521 -223 -35 -26 -421 -405 -858 -841 l-794 -794 -183 184
-183 183 -2 230 c-1 254 -11 333 -61 480 -135 405 -487 705 -913 779 -87 16
-283 18 -355 4z"/>
</g>
</svg>
