<svg xmlns="http://www.w3.org/2000/svg" viewBox="0 0 275 175"><style type="text/css">  
	.st0{fill:none;stroke:#EE2148;stroke-width:25;stroke-linecap:round;stroke-linejoin:round;stroke-miterlimit:10;}
	.st1{fill:none;stroke:#EE2148;stroke-width:21;stroke-linecap:round;stroke-linejoin:round;stroke-miterlimit:10;}
	
		.st2{fill:none;stroke:#EE2148;stroke-width:25;stroke-linecap:round;stroke-linejoin:round;stroke-miterlimit:10;stroke-dasharray:50;}
	.st3{fill:none;stroke:#EE2148;stroke-width:50;stroke-linecap:round;stroke-linejoin:round;stroke-miterlimit:10;}
	.st4{fill:none;stroke:#000000;stroke-width:10;stroke-linecap:round;stroke-linejoin:round;stroke-miterlimit:10;}
</style><line class="st0" x1="132.5" y1="129.5" x2="132.5" y2="129.5"/><line class="st0" x1="120" y1="54.5" x2="120" y2="54.5"/><line class="st0" x1="107.5" y1="104.5" x2="107.5" y2="154.5"/><line class="st0" x1="145" y1="17" x2="145" y2="67"/><line class="st1" x1="171" y1="67" x2="171" y2="67"/><line class="st2" x1="157.5" y1="129.5" x2="182.5" y2="154.5"/><line class="st2" x1="195" y1="54.5" x2="220" y2="79.5"/><line class="st3" x1="220" y1="142" x2="220" y2="142"/><polyline class="st0" points="48 17 48 67 98 17 "/><path class="st0" d="M82.5 105.9c-53.1-12.5-53.1 62.5 0 50"/><path d="M125 79.5c0-8.3 0-16.7 0-25 0-6.4-10-6.4-10 0 0 8.3 0 16.7 0 25C115 85.9 125 85.9 125 79.5L125 79.5z"/><path d="M137.5 154.5c0-8.3 0-16.7 0-25 0-6.4-10-6.4-10 0 0 8.3 0 16.7 0 25C127.5 160.9 137.5 160.9 137.5 154.5L137.5 154.5z"/><path d="M150 54.5c0-12.5 0-25 0-37.5 0-6.4-10-6.4-10 0 0 12.5 0 25 0 37.5C140 60.9 150 60.9 150 54.5L150 54.5z"/><path d="M102.5 117c0 12.5 0 25 0 37.5 0 6.4 10 6.4 10 0 0-12.5 0-25 0-37.5C112.5 110.6 102.5 110.6 102.5 117L102.5 117z"/><path d="M162.8 82c4.2-8.3 8.3-16.7 12.5-25 -2.9 0-5.8 0-8.6 0 4.2 8.3 8.3 16.7 12.5 25 2.9 5.8 11.5 0.7 8.6-5 -4.2-8.3-8.3-16.7-12.5-25 -1.6-3.3-7-3.3-8.6 0 -4.2 8.3-8.3 16.7-12.5 25C151.3 82.7 159.9 87.8 162.8 82L162.8 82z"/><polyline class="st4" points="157.5 154.5 157.5 129.5 182.5 154.5 182.5 129.5 "/><polyline class="st4" points="195 79.5 195 54.5 220 79.5 220 54.5 "/><path class="st4" d="M220 129.5c-12.5 0-12.5 12.5-12.5 12.5s0 12.5 12.5 12.5"/><line class="st4" x1="220" y1="142" x2="232.5" y2="142"/><path d="M76.5 38.5c-8.3-8.3-16.7-16.7-25-25 -4.6-4.6-11.6 2.5-7.1 7.1 8.3 8.3 16.7 16.7 25 25C74 50.1 81.1 43 76.5 38.5L76.5 38.5z"/><path d="M94.5 13.5c-8.3 8.3-16.7 16.7-25 25 -4.6 4.6 2.5 11.6 7.1 7.1 8.3-8.3 16.7-16.7 25-25C106.1 16 99 8.9 94.5 13.5L94.5 13.5z"/><path d="M103 79.5c0-20.8 0-41.7 0-62.5 0-6.4-10-6.4-10 0 0 20.8 0 41.7 0 62.5C93 85.9 103 85.9 103 79.5L103 79.5z"/><path class="st4" d="M82.5 105.9c-27.4-6.4-40.6 10.3-39.8 26.4 0.8 15.1 14 29.7 39.8 23.6"/></svg>